<svg width="95" height="20" viewBox="0 0 95 20" fill="none" xmlns="http://www.w3.org/2000/svg">
<g clip-path="url(#clip0_785_497)">
<path d="M18.3466 19.5667H14.9149L13.1165 14.635H7.52345L8.54637 11.8808H12.0771L9.26935 4.00579L9.10667 4.01829L3.41525 19.5664H0C0.119451 19.1862 0.262001 18.8103 0.40422 18.4375C2.63585 12.6029 4.89453 6.77246 7.16872 0.95291C7.20238 0.866692 7.34097 0.487846 7.37463 0.448423C7.40168 0.417013 7.43237 0.413487 7.47197 0.414769H10.8743L10.9852 0.467333L18.3466 19.567V19.5667Z" fill="#E8B678"/>
<path d="M22.5703 8.45455C22.6347 8.45455 22.697 8.47026 22.7525 8.42314C22.7881 8.3927 22.991 8.01193 23.058 7.9193C23.6249 7.13468 24.4894 6.58244 25.4157 6.26834C26.5158 5.89526 27.614 5.95552 28.6445 6.48885L27.7839 9.15936C27.5249 9.12507 27.2949 9.01513 27.0326 8.97571C24.664 8.6209 23.0082 10.0786 22.767 12.3122L22.7699 19.4565L22.7188 19.5671H19.6995V6.46898H22.5703V8.45455Z" fill="#E8B678"/>
<path d="M35.2084 19.983C30.2551 19.5859 27.6869 14.6413 29.3672 10.2952C31.6037 4.50958 40.356 4.48266 42.0623 10.657C42.3322 11.6336 42.3943 12.6359 42.3025 13.6423H31.9413C32.0535 16.1311 34.3877 17.7141 36.8652 17.2202C38.0561 16.9827 38.8955 16.1391 39.5185 15.1769L42.1003 16.4C42.1428 16.4657 41.8779 16.8519 41.8211 16.9381C40.6886 18.6529 38.6956 19.8452 36.5804 19.9535L36.528 19.983C36.0993 19.9577 35.6318 20.017 35.2081 19.983H35.2084ZM39.3001 11.3686C39.2057 10.9327 39.0892 10.507 38.852 10.1221C37.9449 8.65093 35.7278 8.19869 34.1634 8.86503C33.1474 9.29772 32.3396 10.3179 32.1396 11.3686H39.3001Z" fill="#E8B678"/>
<path d="M48.4734 19.9831C46.1873 19.8225 44.0154 18.1844 43.8541 15.8677C43.5594 11.6334 48.3543 10.4286 51.8062 11.3206C52.2655 11.4392 52.7077 11.6122 53.1591 11.7526C53.2033 10.9818 53.0687 10.2703 52.5493 9.67089C51.2452 8.1664 48.6216 8.21929 47.2033 9.54333L46.6437 10.1523L44.2507 8.62826C44.8506 7.75326 45.7795 7.05198 46.7684 6.62345C50.7004 4.91961 56.2216 6.54397 56.1635 11.3513L56.1622 19.5667H53.1594V17.9815C53.1594 17.9324 53.0462 17.9228 52.9937 17.9488C52.9492 17.9706 52.8344 18.1651 52.7803 18.2222C51.8995 19.1481 50.8671 19.8667 49.5297 19.9831C49.2439 20.0081 48.7628 20.0033 48.4737 19.9831H48.4734ZM49.7864 13.3315C48.3596 13.4196 46.6381 14.2735 47.0037 15.917C47.3079 17.285 49.0423 17.7174 50.2883 17.4376C51.8138 17.0946 53.1706 15.6821 53.1422 14.1225C52.1731 13.527 50.9301 13.261 49.7861 13.3315H49.7864Z" fill="#E8B678"/>
<path d="M87.5096 0L88.5058 0.170192C92.7562 1.07949 94.8446 5.40962 94.967 9.31923C94.9809 9.7641 94.9815 10.2513 94.967 10.6962C94.838 14.683 92.6565 19.1343 88.2424 19.8779C88.0115 19.9167 87.7686 19.9202 87.5426 19.9833H86.9156V17.0372C91.0974 17.0224 92.0398 11.7125 91.663 8.57083C91.3238 5.74199 89.6729 2.44679 86.1827 3.01987C85.2859 3.16699 84.9503 3.51635 84.2593 3.97147C84.2319 3.98942 84.228 4.01699 84.1768 4.00321C83.9343 3.00256 83.433 2.06571 82.8256 1.23269C83.5251 0.765385 84.3035 0.402244 85.1331 0.208013L86.3213 0.000320513H87.5092L87.5096 0Z" fill="#E8B678"/>
<path d="M95 10.6963H94.967C94.9815 10.2514 94.9808 9.76421 94.967 9.31934H95V10.6963Z" fill="#E8B678"/>
<path d="M67.2161 0.41626V15.8999L64.1136 19.4858L64.0153 19.5345V4.19511L60.4054 5.69767L59.195 3.03004L64.9227 0.41626H67.2161Z" fill="#E8B678"/>
<path d="M76.1914 0C76.5085 0.0695513 76.8315 0.103205 77.1487 0.175641C79.8914 0.802564 81.9462 3.20192 82.0993 5.9391C82.22 8.09872 81.8765 10.2856 82.3451 12.4256C82.843 14.7013 84.2184 17.0462 86.9156 17.0369V19.983C86.7005 19.9708 86.4682 19.9997 86.2556 19.983C81.932 19.6436 79.5047 15.7821 78.9675 11.9567C78.7065 10.0987 78.9648 8.12981 78.8655 6.25929C78.7985 4.99327 78.1528 3.78173 76.9394 3.22885C74.9335 2.31442 72.8458 3.70769 72.495 5.70032L69.5275 4.38558C69.484 4.33654 69.7179 3.79744 69.7615 3.70353C70.7046 1.6625 72.8286 0.168269 75.149 0.0298077L75.2015 0L76.1914 0Z" fill="#E8B678"/>
<path d="M73.0566 16.7168H77.9733C78.3316 17.4491 78.7992 18.1536 79.3268 18.7815C79.5205 19.0119 79.7951 19.2491 79.9696 19.4706C79.995 19.503 80.0333 19.511 80.0188 19.5668H66.6218L76.4055 8.19849L76.4534 11.0337L76.6048 12.5873L73.056 16.7164L73.0566 16.7168Z" fill="#E8B678"/>
</g>
<defs>
<clipPath id="clip0_785_497">
<rect width="95" height="20" fill="white"/>
</clipPath>
</defs>
</svg>
