<svg width="71" height="24" viewBox="0 0 71 24" fill="none" xmlns="http://www.w3.org/2000/svg">
<g clip-path="url(#clip0_785_477)">
<path d="M71 0H0V24H71V0Z" fill="#E8B678"/>
<path d="M3.34433 3.5585C3.34433 3.40314 3.44323 3.29956 3.59341 3.29956H11.5238C11.674 3.29956 11.7729 3.40314 11.7729 3.5585V6.70277C11.7729 6.85813 11.674 6.96171 11.5238 6.96171H7.46155C7.36264 6.96171 7.31136 7.01349 7.31136 7.11707V10.0024C7.31136 10.106 7.36264 10.1578 7.46155 10.1578H10.9524C11.1026 10.1578 11.2015 10.2613 11.2015 10.4167V13.561C11.2015 13.7163 11.1026 13.8199 10.9524 13.8199H7.46155C7.36264 13.8199 7.31136 13.8717 7.31136 13.9753V17.016C7.31136 17.1195 7.36264 17.1713 7.46155 17.1713H11.5238C11.674 17.1713 11.7729 17.2749 11.7729 17.4303V20.5745C11.7729 20.7299 11.674 20.8335 11.5238 20.8335H3.59341C3.44323 20.8335 3.34433 20.7299 3.34433 20.5745V3.5585Z" fill="#262A2C"/>
<path d="M13.0952 3.5585C13.0952 3.40314 13.1941 3.29956 13.3443 3.29956H16.6593C16.8571 3.29956 16.9854 3.40314 17.033 3.5585L19.3517 12.0628H19.4506L21.696 3.5585C21.7473 3.40314 21.8718 3.29956 22.0696 3.29956H25.3626C25.5128 3.29956 25.6117 3.40314 25.6117 3.5585V20.5671C25.6117 20.7225 25.5128 20.8261 25.3626 20.8261H22.37C22.2198 20.8261 22.1209 20.7225 22.1209 20.5671V11.5227H21.9963L20.5018 17.4488C20.4506 17.63 20.3517 17.7077 20.2015 17.7077H18.5055C18.3553 17.7077 18.2564 17.63 18.2051 17.4488L16.7106 11.5227H16.5861V20.5671C16.5861 20.7225 16.4872 20.8261 16.337 20.8261H13.3443C13.1941 20.8261 13.0952 20.7225 13.0952 20.5671V3.5585Z" fill="#262A2C"/>
<path d="M27.2051 3.5585C27.2051 3.40314 27.304 3.29956 27.4542 3.29956H35.3846C35.5348 3.29956 35.6337 3.40314 35.6337 3.5585V6.70277C35.6337 6.85813 35.5348 6.96171 35.3846 6.96171H31.3224C31.2235 6.96171 31.1722 7.01349 31.1722 7.11707V10.0024C31.1722 10.106 31.2235 10.1578 31.3224 10.1578H34.8132C34.9634 10.1578 35.0623 10.2613 35.0623 10.4167V13.561C35.0623 13.7163 34.9634 13.8199 34.8132 13.8199H31.3224C31.2235 13.8199 31.1722 13.8717 31.1722 13.9753V17.016C31.1722 17.1195 31.2235 17.1713 31.3224 17.1713H35.3846C35.5348 17.1713 35.6337 17.2749 35.6337 17.4303V20.5745C35.6337 20.7299 35.5348 20.8335 35.3846 20.8335H27.4542C27.304 20.8335 27.2051 20.7299 27.2051 20.5745V3.5585Z" fill="#262A2C"/>
<path d="M43.0879 8.84087C43.0879 7.24284 42.641 6.75455 41.641 6.75455H41.0696C40.9707 6.75455 40.9194 6.80634 40.9194 6.90992V10.7496C40.9194 10.8532 40.9707 10.905 41.0696 10.905H41.641C42.641 10.9013 43.0879 10.413 43.0879 8.84087ZM43.685 20.8224C43.5092 20.8224 43.4103 20.7447 43.359 20.5893L41.6374 14.2749H41.0659C40.967 14.2749 40.9158 14.3267 40.9158 14.4303V20.5634C40.9158 20.7188 40.8169 20.8224 40.6667 20.8224H37.2015C37.0513 20.8224 36.9524 20.7188 36.9524 20.5634V3.5585C36.9524 3.40314 37.0513 3.29956 37.2015 3.29956H41.9634C45.0037 3.29956 47.0513 4.89759 47.0513 8.84087C47.0513 10.979 46.3773 12.3957 45.2821 13.2724L47.5018 20.5634C47.5531 20.6929 47.5018 20.8224 47.3773 20.8224H43.685Z" fill="#262A2C"/>
<path d="M48.2234 12.0629C48.2234 7.8903 48.348 7.01361 48.5971 6.21459C49.2711 4.10239 50.7656 3.04443 53.2088 3.04443C56.3004 3.04443 57.9451 4.82372 58.0952 7.73494C58.0952 7.9162 58.044 8.01607 57.8974 8.04197L54.5568 8.60794C54.4066 8.63383 54.2821 8.55615 54.2821 8.37489C54.2564 7.16527 53.9341 6.69918 53.2601 6.69918C52.8352 6.69918 52.5604 6.88044 52.4139 7.31694C52.315 7.67575 52.2894 7.93469 52.2894 12.0592C52.2894 16.1838 52.315 16.439 52.4139 16.8015C52.5641 17.238 52.8388 17.4193 53.2601 17.4193C53.9341 17.4193 54.2564 16.9569 54.2821 15.7436C54.2821 15.5623 54.4066 15.4846 54.5568 15.5105L57.8974 16.0765C58.0476 16.1024 58.0952 16.206 58.0952 16.3872C57.9451 19.2984 56.3004 21.0777 53.2088 21.0777C50.7656 21.0777 49.2711 20.0198 48.5971 17.9076C48.348 17.1123 48.2234 16.2356 48.2234 12.0629Z" fill="#262A2C"/>
<path d="M59.2198 3.5585C59.2198 3.40314 59.3187 3.29956 59.4689 3.29956H67.3993C67.5495 3.29956 67.6484 3.40314 67.6484 3.5585V6.70277C67.6484 6.85813 67.5495 6.96171 67.3993 6.96171H63.337C63.2381 6.96171 63.1868 7.01349 63.1868 7.11707V10.0024C63.1868 10.106 63.2381 10.1578 63.337 10.1578H66.8278C66.978 10.1578 67.0769 10.2613 67.0769 10.4167V13.561C67.0769 13.7163 66.978 13.8199 66.8278 13.8199H63.337C63.2381 13.8199 63.1868 13.8717 63.1868 13.9753V17.016C63.1868 17.1195 63.2381 17.1713 63.337 17.1713H67.3993C67.5495 17.1713 67.6484 17.2749 67.6484 17.4303V20.5745C67.6484 20.7299 67.5495 20.8335 67.3993 20.8335H59.4689C59.3187 20.8335 59.2198 20.7299 59.2198 20.5745V3.5585Z" fill="#262A2C"/>
</g>
<defs>
<clipPath id="clip0_785_477">
<rect width="71" height="24" fill="white"/>
</clipPath>
</defs>
</svg>
