<svg width="103" height="20" viewBox="0 0 103 20" fill="none" xmlns="http://www.w3.org/2000/svg">
<g clip-path="url(#clip0_588_1830)">
<path d="M6.56998 19.642H2.69272V9.98526H0.0514526V6.8412H2.69262V4.60398C2.69262 1.95287 3.86081 0.0515137 7.72758 0.0515137C8.5454 0.0515137 9.82935 0.216206 9.82935 0.216206V3.13563H8.48078C7.1067 3.13563 6.57019 3.55322 6.57019 4.70771V6.8412H9.7779L9.49226 9.98526H6.57009L6.56998 19.642ZM15.4665 6.58995C15.41 6.58995 15.3518 6.59201 15.2943 6.59344C11.6991 6.59344 10.0542 9.29534 10.0542 13.1307C10.0542 17.9623 12.1879 19.8961 15.3224 19.8961C17.1158 19.8961 18.2941 19.1419 19.0102 17.7345V19.6434H22.6981V6.84254H19.0102V8.81113C18.4255 7.54459 17.2143 6.60496 15.4665 6.58995ZM16.4042 9.61475C17.9142 9.61475 18.8205 10.6671 18.8205 12.457L18.824 14.2851C18.824 15.4915 18.0754 16.9029 16.4042 16.9029C13.8348 16.9029 13.9035 14.1311 13.9035 13.208C13.9035 10.1026 15.2724 9.61475 16.4042 9.61475ZM24.1874 13.2436C24.1874 11.6881 24.1129 6.59828 30.7502 6.59828C33.4145 6.59828 34.527 7.44466 34.527 7.44466L33.6328 10.2155C33.6328 10.2155 32.5218 9.60426 31.074 9.60426C29.2197 9.60426 28.0365 10.6783 28.0365 12.5679L28.0385 13.9229C28.0385 15.7386 29.1802 16.9506 31.0778 16.9506C32.3967 16.9506 33.6124 16.3336 33.6124 16.3336L34.5043 19.0466C34.5043 19.0466 33.487 19.8983 30.7688 19.8983C24.4491 19.8983 24.1875 15.3318 24.1875 13.2436H24.1874ZM56.1501 6.59344C59.7455 6.59344 61.4163 9.29534 61.4163 13.1307C61.4163 17.9623 59.2825 19.8961 56.148 19.8961C54.3546 19.8961 53.0289 19.142 52.3127 17.7345V19.6434L48.6713 19.6419V0.440729L52.5375 0.103841V8.6377C53.0955 7.14468 54.9293 6.59344 56.1501 6.59344ZM55.0662 9.61475C53.5562 9.61475 52.5375 10.6671 52.5375 12.457L52.5339 14.2851C52.5317 15.4915 53.2394 16.9029 55.0662 16.9029C57.6356 16.9029 57.5669 14.1311 57.5669 13.208C57.5669 10.1026 56.1981 9.61475 55.0662 9.61475ZM41.2353 6.60403C37.1575 6.60403 35.0047 8.82532 35.0047 12.7728V13.5062C35.0047 18.6296 38.0279 19.9487 41.6322 19.9487C45.1355 19.9487 46.7213 18.9697 46.7213 18.9697L45.9978 16.3626C45.9978 16.3626 44.1325 17.1555 42.0957 17.1555C39.9843 17.1555 39.0762 16.6179 38.8435 14.5906H47.0304V12.499C47.0304 8.21703 44.6142 6.60393 41.2352 6.60393L41.2353 6.60403ZM41.3336 9.21464C42.7451 9.21464 43.6598 10.0794 43.6095 12.085H38.8506C38.9331 9.97415 39.9194 9.21464 41.3336 9.21464ZM69.1255 6.58645C64.9379 6.58645 62.7333 8.94416 62.7333 13.1693C62.7333 18.9664 66.5335 19.8996 69.1324 19.8996C72.9372 19.8996 75.4684 17.8531 75.4684 13.2219C75.4684 8.40177 72.6223 6.58645 69.1255 6.58645ZM69.0728 9.62524C70.9141 9.62524 71.6438 11.0021 71.6438 12.5693V13.9168C71.6438 15.8154 70.6228 16.9135 69.0658 16.9135C67.6096 16.9135 66.5862 15.8863 66.5862 13.9168V12.5693C66.5862 10.4688 67.8039 9.62524 69.0728 9.62524ZM83.1707 6.58645C78.9831 6.58645 76.7785 8.94416 76.7785 13.1693C76.7785 18.9664 80.5787 19.8996 83.1777 19.8996C86.9823 19.8996 89.5137 17.8531 89.5137 13.2219C89.5137 8.40177 86.6674 6.58645 83.1707 6.58645ZM83.118 9.62524C84.9594 9.62524 85.6889 11.0021 85.6889 12.5693V13.9168C85.6889 15.8154 84.668 16.9135 83.111 16.9135C81.6548 16.9135 80.6314 15.8863 80.6314 13.9168V12.5693C80.6314 10.4688 81.8492 9.62524 83.118 9.62524ZM90.9747 19.642V0.440729L94.8522 0.103841V12.9738L98.6991 6.8412H102.794L98.781 13.1927L102.949 19.642H98.842L94.8522 13.3798V19.642H90.9747Z" fill="#E8B678"/>
</g>
<defs>
<clipPath id="clip0_588_1830">
<rect width="103" height="20" fill="white"/>
</clipPath>
</defs>
</svg>
