<svg width="83" height="28" viewBox="0 0 83 28" fill="none" xmlns="http://www.w3.org/2000/svg">
<g clip-path="url(#clip0_785_466)">
<path d="M35.3208 14.3591C35.3208 18.2456 32.2724 21.1095 28.5313 21.1095C24.7901 21.1095 21.7417 18.2456 21.7417 14.3591C21.7417 10.4452 24.7901 7.60864 28.5313 7.60864C32.2724 7.60864 35.3208 10.4452 35.3208 14.3591ZM32.3486 14.3591C32.3486 11.9304 30.5818 10.2686 28.5313 10.2686C26.4807 10.2686 24.7139 11.9304 24.7139 14.3591C24.7139 16.7634 26.4807 18.4495 28.5313 18.4495C30.5818 18.4495 32.3486 16.7604 32.3486 14.3591Z" fill="#E8B678"/>
<path d="M49.9678 14.3591C49.9678 18.2456 46.9194 21.1095 43.1783 21.1095C39.4372 21.1095 36.3888 18.2456 36.3888 14.3591C36.3888 10.4482 39.4372 7.60864 43.1783 7.60864C46.9194 7.60864 49.9678 10.4452 49.9678 14.3591ZM46.9957 14.3591C46.9957 11.9304 45.2289 10.2686 43.1783 10.2686C41.1277 10.2686 39.3609 11.9304 39.3609 14.3591C39.3609 16.7634 41.1277 18.4495 43.1783 18.4495C45.2289 18.4495 46.9957 16.7604 46.9957 14.3591Z" fill="#E8B678"/>
<path d="M64.0046 8.01647V20.1356C64.0046 25.1208 61.0569 27.1569 57.5721 27.1569C54.2918 27.1569 52.3175 24.9686 51.5729 23.1791L54.1606 22.1047C54.6213 23.2034 55.7504 24.4999 57.569 24.4999C59.7997 24.4999 61.182 23.1273 61.182 20.5434V19.5726H61.0782C60.413 20.3912 59.1314 21.1065 57.5141 21.1065C54.13 21.1065 51.0297 18.1665 51.0297 14.3834C51.0297 10.573 54.13 7.60864 57.5141 7.60864C59.1283 7.60864 60.41 8.32386 61.0782 9.11821H61.182V8.01951H64.0046V8.01647ZM61.3925 14.3834C61.3925 12.0065 59.8027 10.2686 57.7796 10.2686C55.729 10.2686 54.011 12.0065 54.011 14.3834C54.011 16.736 55.729 18.4495 57.7796 18.4495C59.8027 18.4495 61.3925 16.736 61.3925 14.3834Z" fill="#E8B678"/>
<path d="M68.6581 0.913086V20.6957H65.7592V0.913086H68.6581Z" fill="#E8B678"/>
<path d="M79.9546 16.5809L82.2615 18.1148C81.517 19.2135 79.7227 21.1066 76.6224 21.1066C72.7776 21.1066 69.9061 18.1422 69.9061 14.3561C69.9061 10.3418 72.802 7.60571 76.2898 7.60571C79.802 7.60571 81.52 10.3935 82.0815 11.9001L82.3897 12.667L73.3421 16.4044C74.0348 17.7588 75.1119 18.4496 76.6224 18.4496C78.1359 18.4496 79.1856 17.707 79.9546 16.5809ZM72.8538 14.1522L78.9019 11.6475C78.5693 10.8044 77.5684 10.217 76.3905 10.217C74.88 10.217 72.7776 11.547 72.8538 14.1522Z" fill="#E8B678"/>
<path d="M10.7686 12.6031V9.73915H20.4448C20.5394 10.2383 20.5883 10.8287 20.5883 11.4678C20.5883 13.6165 19.9993 16.2735 18.1013 18.1665C16.2552 20.0839 13.8964 21.1065 10.7717 21.1065C4.98 21.1065 0.109848 16.4013 0.109848 10.6248C0.109848 4.84828 4.98 0.143066 10.7717 0.143066C13.9757 0.143066 16.2582 1.39698 17.9732 3.03133L15.947 5.0522C14.7172 3.90176 13.0511 3.00698 10.7686 3.00698C6.5393 3.00698 3.2315 6.40654 3.2315 10.6248C3.2315 14.8431 6.5393 18.2426 10.7686 18.2426C13.5119 18.2426 15.0743 17.1439 16.0751 16.1457C16.8868 15.3361 17.4208 14.1796 17.6314 12.6L10.7686 12.6031Z" fill="#E8B678"/>
</g>
<defs>
<clipPath id="clip0_785_466">
<rect width="83" height="28" fill="white"/>
</clipPath>
</defs>
</svg>
