<svg width="71" height="22" viewBox="0 0 71 22" fill="none" xmlns="http://www.w3.org/2000/svg">
<g clip-path="url(#clip0_588_1828)">
<path d="M10.6685 0.036377C4.79431 0.036377 0.0321045 4.94617 0.0321045 11.0026C0.0321045 17.0593 4.79431 21.9687 10.6685 21.9687C16.5434 21.9687 21.305 17.0593 21.305 11.0026C21.305 4.94657 16.5434 0.0369008 10.6684 0.0369008L10.6685 0.036377ZM15.5463 15.8528C15.3558 16.1749 14.9468 16.2771 14.6344 16.0794C12.137 14.5066 8.99322 14.1504 5.2908 15.0226C4.93403 15.1064 4.57839 14.8759 4.4971 14.5079C4.41543 14.1399 4.63809 13.7733 4.99575 13.6895C9.04745 12.7351 12.5229 13.146 15.3266 14.9126C15.639 15.1103 15.7381 15.5307 15.5463 15.8528ZM16.8482 12.8668C16.6081 13.2691 16.0975 13.3961 15.7076 13.1486C12.8486 11.3368 8.49038 10.8121 5.10867 11.8704C4.67009 12.007 4.20688 11.7522 4.07377 11.3008C3.94168 10.8486 4.18897 10.3719 4.62678 10.2344C8.48961 9.026 13.2918 9.61135 16.5751 11.6915C16.965 11.939 17.0882 12.4653 16.8482 12.8668ZM16.96 9.7575C13.5319 7.6582 7.87602 7.46518 4.60303 8.48935C4.07745 8.6537 3.52165 8.34779 3.36237 7.80591C3.2031 7.26377 3.49955 6.69112 4.02551 6.52638C7.78266 5.35043 14.0285 5.57763 17.9753 7.99331C18.449 8.28258 18.604 8.91207 18.3233 9.39882C18.0439 9.88622 17.4317 10.0469 16.9605 9.7575H16.96ZM28.9703 10.1598C27.1337 9.70826 26.8072 9.39135 26.8072 8.72546C26.8072 8.09636 27.3813 7.673 28.2361 7.673C29.0642 7.673 29.8847 7.99448 30.7459 8.65632C30.7713 8.67635 30.8043 8.68434 30.8361 8.6791C30.8691 8.67413 30.897 8.65592 30.9161 8.62856L31.8128 7.32532C31.8496 7.27163 31.8395 7.19764 31.7899 7.15665C30.7649 6.309 29.6117 5.89689 28.2628 5.89689C26.2801 5.89689 24.8944 7.12378 24.8944 8.8792C24.8944 10.7616 26.0896 11.4282 28.1548 11.9427C29.9114 12.36 30.2086 12.7097 30.2086 13.3346C30.2086 14.0273 29.6091 14.4582 28.6438 14.4582C27.5718 14.4582 26.6967 14.0849 25.7187 13.2128C25.6946 13.1905 25.6616 13.1814 25.6311 13.1827C25.5981 13.1853 25.5689 13.201 25.5485 13.2259L24.5426 14.4595C24.5007 14.5119 24.5058 14.5878 24.554 14.6323C25.6921 15.6799 27.0917 16.2326 28.6032 16.2326C30.7395 16.2326 32.1202 15.0291 32.1202 13.1657C32.124 11.5933 31.2108 10.7225 28.9741 10.1615L28.9703 10.1598ZM36.9543 8.2924C36.0283 8.2924 35.2688 8.6685 34.6414 9.43915V8.57172C34.6414 8.50323 34.588 8.44745 34.522 8.44745H32.8772C32.8111 8.44745 32.7578 8.50323 32.7578 8.57172V18.21C32.7578 18.278 32.8111 18.3344 32.8772 18.3344H34.522C34.588 18.3344 34.6414 18.278 34.6414 18.21V15.1679C35.2688 15.8921 36.0283 16.247 36.9543 16.247C38.6753 16.247 40.4179 14.8811 40.4179 12.2701C40.4204 9.6585 38.6778 8.29227 36.9555 8.29227L36.9543 8.2924ZM38.5051 12.2701C38.5051 13.5991 37.7113 14.5276 36.5732 14.5276C35.4492 14.5276 34.6007 13.5572 34.6007 12.2701C34.6007 10.9828 35.4492 10.0127 36.5732 10.0127C37.6922 10.0126 38.5051 10.9619 38.5051 12.2701ZM44.8824 8.2924C42.666 8.2924 40.9298 10.0519 40.9298 12.2985C40.9298 14.521 42.6546 16.2614 44.8557 16.2614C47.0797 16.2614 48.821 14.5079 48.821 12.2701C48.821 10.0398 47.0911 8.29266 44.8824 8.29266V8.2924ZM44.8824 14.5407C43.7037 14.5407 42.8146 13.5638 42.8146 12.2694C42.8146 10.9692 43.6732 10.0257 44.8557 10.0257C46.042 10.0257 46.9362 11.0022 46.9362 12.2978C46.9362 13.5978 46.0725 14.5407 44.8824 14.5407ZM53.5535 8.44745H51.7436V6.54C51.7436 6.47164 51.6903 6.41585 51.6242 6.41585H49.9794C49.9134 6.41585 49.8587 6.47164 49.8587 6.54V8.44745H49.0687C49.0027 8.44745 48.9493 8.50323 48.9493 8.57172V10.0288C48.9493 10.0972 49.0027 10.1531 49.0687 10.1531H49.8587V13.9239C49.8587 15.4469 50.5941 16.2195 52.0459 16.2195C52.6352 16.2195 53.1242 16.0938 53.5853 15.824C53.6234 15.803 53.6462 15.7611 53.6462 15.7166V14.3285C53.6462 14.2866 53.6247 14.246 53.5891 14.2238C53.5535 14.2002 53.5091 14.1989 53.4722 14.2185C53.156 14.3822 52.8499 14.4582 52.5069 14.4582C51.9798 14.4582 51.7436 14.2107 51.7436 13.658V10.1538H53.5535C53.6196 10.1538 53.6729 10.098 53.6729 10.0295V8.57251C53.6755 8.50402 53.6221 8.44823 53.5548 8.44823L53.5535 8.44745ZM59.8584 8.45491V8.22064C59.8584 7.53144 60.115 7.22409 60.6891 7.22409C61.032 7.22409 61.3076 7.29428 61.6163 7.40035C61.6544 7.41266 61.6938 7.40651 61.7242 7.38307C61.756 7.35963 61.7738 7.32204 61.7738 7.28223V5.85354C61.7738 5.79894 61.7408 5.75062 61.6887 5.73451C61.3635 5.63459 60.9469 5.53206 60.322 5.53206C58.8042 5.53206 58.0002 6.41389 58.0002 8.08131V8.44011H57.2102C57.1442 8.44011 57.0896 8.4959 57.0896 8.56426V10.0288C57.0896 10.0972 57.1442 10.1531 57.2102 10.1531H58.0002V15.968C58.0002 16.0374 58.0549 16.0924 58.1209 16.0924H59.7644C59.8318 16.0924 59.8851 16.0374 59.8851 15.968V10.1535H61.4207L63.773 15.968C63.5062 16.5783 63.2433 16.7001 62.8851 16.7001C62.5956 16.7001 62.2895 16.611 61.9783 16.4342C61.9491 16.4185 61.9135 16.4159 61.883 16.4251C61.8513 16.4369 61.8246 16.4604 61.8119 16.4919L61.2543 17.7529C61.2276 17.8132 61.2505 17.8826 61.3064 17.914C61.8881 18.2388 62.4127 18.3776 63.0617 18.3776C64.2759 18.3776 64.9478 17.7935 65.5384 16.2247L68.3911 8.62463C68.4064 8.58639 68.4013 8.54317 68.3784 8.50926C68.3568 8.4756 68.32 8.45531 68.2806 8.45531H66.5685C66.5164 8.45531 66.4707 8.48896 66.4542 8.53859L64.7001 13.7026L62.7797 8.53519C62.7619 8.48713 62.7175 8.45531 62.6679 8.45531H59.8584V8.45491ZM56.203 8.44745H54.5582C54.4922 8.44745 54.4375 8.50323 54.4375 8.57172V15.968C54.4375 16.0374 54.4922 16.0924 54.5582 16.0924H56.203C56.2691 16.0924 56.3237 16.0374 56.3237 15.968V8.57225C56.3237 8.50376 56.2703 8.44797 56.203 8.44797V8.44745ZM55.3901 5.07948C54.7386 5.07948 54.2102 5.6232 54.2102 6.29485C54.2102 6.9669 54.7386 7.51127 55.3901 7.51127C56.0417 7.51127 56.5688 6.9669 56.5688 6.29485C56.5688 5.62333 56.0404 5.07948 55.3901 5.07948ZM69.7959 10.8257C69.1456 10.8257 68.6388 10.2868 68.6388 9.63244C68.6388 8.97807 69.1519 8.43304 69.8022 8.43304C70.4525 8.43304 70.9593 8.97178 70.9593 9.62563C70.9593 10.28 70.4462 10.8257 69.7959 10.8257ZM69.8022 8.55169C69.2091 8.55169 68.7607 9.03752 68.7607 9.63244C68.7607 10.2271 69.2066 10.7064 69.7959 10.7064C70.389 10.7064 70.8374 10.2209 70.8374 9.62563C70.8374 9.03097 70.3916 8.55169 69.8022 8.55169ZM70.0588 9.74833L70.3865 10.2208H70.1096L69.8149 9.78735H69.5622V10.2208H69.331V8.96838H69.8721C70.1553 8.96838 70.3408 9.11727 70.3408 9.36791C70.342 9.57325 70.2265 9.6987 70.0601 9.74833H70.0588ZM69.8632 9.18327H69.5622V9.5794H69.8632C70.0131 9.5794 70.1033 9.50358 70.1033 9.38114C70.1033 9.25228 70.0131 9.18327 69.8632 9.18327Z" fill="#E8B678"/>
</g>
<defs>
<clipPath id="clip0_588_1828">
<rect width="71" height="22" fill="white"/>
</clipPath>
</defs>
</svg>
