<svg width="93" height="93" viewBox="0 0 93 93" fill="none" xmlns="http://www.w3.org/2000/svg">
<g clip-path="url(#clip0_588_559)">
<path d="M35.6408 48.965L41.3127 43.293H49.8206V37.6211H32.8048V48.965H35.6408Z" fill="#E8B678"/>
<path d="M77.5842 10.3105H14.2625C11.9657 10.3105 10.1053 12.171 10.1053 14.4678V77.7895C10.1053 80.0862 11.9657 81.9467 14.2625 81.9467H77.5842C79.881 81.9467 81.7414 80.0862 81.7414 77.7895V14.4678C81.7414 12.171 79.881 10.3105 77.5842 10.3105ZM55.4932 60.3126H49.8213V48.9687H44.1493L38.4774 54.6407H32.8054V60.3126H27.1335V31.9487H32.8054V37.6207L38.4774 31.9487H49.8213V37.6207H55.4932V60.3126ZM64.7132 60.3126H59.0413V31.9487H64.7132V60.3126Z" fill="#E8B678"/>
<path d="M21.1903 0H16.572V8.31447H21.1903V0Z" fill="#E8B678"/>
<path d="M30.2858 0H25.6676V8.31447H30.2858V0Z" fill="#E8B678"/>
<path d="M39.383 0H34.7647V8.31447H39.383V0Z" fill="#E8B678"/>
<path d="M48.4785 0H43.8603V8.31447H48.4785V0Z" fill="#E8B678"/>
<path d="M57.5805 0H52.9623V8.31447H57.5805V0Z" fill="#E8B678"/>
<path d="M66.6761 0H62.0578V8.31447H66.6761V0Z" fill="#E8B678"/>
<path d="M75.7732 0H71.155V8.31447H75.7732V0Z" fill="#E8B678"/>
<path d="M21.1903 84.0254H16.572V92.3399H21.1903V84.0254Z" fill="#E8B678"/>
<path d="M30.2858 84.0254H25.6676V92.3399H30.2858V84.0254Z" fill="#E8B678"/>
<path d="M39.383 84.0254H34.7647V92.3399H39.383V84.0254Z" fill="#E8B678"/>
<path d="M48.4785 84.0254H43.8603V92.3399H48.4785V84.0254Z" fill="#E8B678"/>
<path d="M57.5805 84.0254H52.9623V92.3399H57.5805V84.0254Z" fill="#E8B678"/>
<path d="M66.6761 84.0254H62.0578V92.3399H66.6761V84.0254Z" fill="#E8B678"/>
<path d="M75.7732 84.0254H71.155V92.3399H75.7732V84.0254Z" fill="#E8B678"/>
<path d="M92.3403 16.5713H84.0258V21.1895H92.3403V16.5713Z" fill="#E8B678"/>
<path d="M92.3403 25.668H84.0258V30.2862H92.3403V25.668Z" fill="#E8B678"/>
<path d="M92.3403 34.7642H84.0258V39.3824H92.3403V34.7642Z" fill="#E8B678"/>
<path d="M92.3403 43.8608H84.0258V48.4791H92.3403V43.8608Z" fill="#E8B678"/>
<path d="M92.3403 52.9614H84.0258V57.5797H92.3403V52.9614Z" fill="#E8B678"/>
<path d="M92.3403 62.0576H84.0258V66.6759H92.3403V62.0576Z" fill="#E8B678"/>
<path d="M92.3403 71.1548H84.0258V75.773H92.3403V71.1548Z" fill="#E8B678"/>
<path d="M8.31447 16.5713H0V21.1895H8.31447V16.5713Z" fill="#E8B678"/>
<path d="M8.31447 25.668H0V30.2862H8.31447V25.668Z" fill="#E8B678"/>
<path d="M8.31447 34.7642H0V39.3824H8.31447V34.7642Z" fill="#E8B678"/>
<path d="M8.31447 43.8608H0V48.4791H8.31447V43.8608Z" fill="#E8B678"/>
<path d="M8.31447 52.9614H0V57.5797H8.31447V52.9614Z" fill="#E8B678"/>
<path d="M8.31447 62.0576H0V66.6759H8.31447V62.0576Z" fill="#E8B678"/>
<path d="M8.31447 71.1548H0V75.773H8.31447V71.1548Z" fill="#E8B678"/>
</g>
<defs>
<clipPath id="clip0_588_559">
<rect width="93" height="93" fill="white"/>
</clipPath>
</defs>
</svg>
