<svg width="315" height="315" viewBox="0 0 315 315" fill="none" xmlns="http://www.w3.org/2000/svg">
<path d="M144.194 180.209L144.194 160.875L158.695 146.375L149.028 136.708L120.027 165.708L139.361 185.042L144.194 180.209Z" fill="#E8B678"/>
<path d="M149.8 42.8451L41.8804 150.765C37.9659 154.679 37.9659 161.021 41.8804 164.935L149.8 272.855C153.715 276.769 160.056 276.769 163.971 272.855L271.89 164.935C275.805 161.021 275.805 154.679 271.89 150.765L163.971 42.8451C160.056 38.9307 153.715 38.9307 149.8 42.8451ZM197.369 165.714L187.702 175.381L168.369 156.047L158.702 165.714V185.047L149.035 194.714L158.702 204.381L149.035 214.048L100.695 165.707L110.361 156.04L120.028 165.707L120.028 146.373L139.362 127.04L149.028 136.707L158.695 127.04L197.369 165.714ZM213.083 150L203.416 159.667L155.075 111.326L164.742 101.659L213.083 150Z" fill="#E8B678"/>
<path d="M36.1148 121.385L28.2439 129.256L42.4143 143.427L50.2852 135.556L36.1148 121.385Z" fill="#E8B678"/>
<path d="M51.6164 105.883L43.7455 113.754L57.9159 127.925L65.7868 120.054L51.6164 105.883Z" fill="#E8B678"/>
<path d="M67.1208 90.3791L59.2499 98.25L73.4203 112.42L81.2912 104.55L67.1208 90.3791Z" fill="#E8B678"/>
<path d="M82.6224 74.8776L74.7515 82.7485L88.922 96.919L96.7929 89.0481L82.6224 74.8776Z" fill="#E8B678"/>
<path d="M98.135 59.3649L90.2641 67.2358L104.435 81.4063L112.305 73.5354L98.135 59.3649Z" fill="#E8B678"/>
<path d="M113.637 43.8635L105.766 51.7344L119.936 65.9048L127.807 58.0339L113.637 43.8635Z" fill="#E8B678"/>
<path d="M129.141 28.3591L121.27 36.23L135.441 50.4004L143.312 42.5295L129.141 28.3591Z" fill="#E8B678"/>
<path d="M179.32 264.591L171.449 272.461L185.62 286.632L193.49 278.761L179.32 264.591Z" fill="#E8B678"/>
<path d="M194.822 249.089L186.951 256.96L201.121 271.13L208.992 263.259L194.822 249.089Z" fill="#E8B678"/>
<path d="M210.326 233.585L202.455 241.456L216.626 255.626L224.496 247.755L210.326 233.585Z" fill="#E8B678"/>
<path d="M225.828 218.083L217.957 225.954L232.127 240.124L239.998 232.253L225.828 218.083Z" fill="#E8B678"/>
<path d="M241.34 202.57L233.469 210.441L247.64 224.611L255.511 216.74L241.34 202.57Z" fill="#E8B678"/>
<path d="M256.842 187.069L248.971 194.939L263.141 209.11L271.012 201.239L256.842 187.069Z" fill="#E8B678"/>
<path d="M272.346 171.564L264.475 179.435L278.646 193.605L286.517 185.735L272.346 171.564Z" fill="#E8B678"/>
<path d="M185.619 28.3662L171.448 42.5366L179.319 50.4075L193.49 36.2371L185.619 28.3662Z" fill="#E8B678"/>
<path d="M201.123 43.8696L186.952 58.04L194.823 65.9109L208.993 51.7405L201.123 43.8696Z" fill="#E8B678"/>
<path d="M216.626 59.373L202.455 73.5435L210.326 81.4144L224.496 67.2439L216.626 59.373Z" fill="#E8B678"/>
<path d="M232.129 74.876L217.958 89.0464L225.829 96.9173L240 82.7469L232.129 74.876Z" fill="#E8B678"/>
<path d="M247.639 90.3862L233.469 104.557L241.34 112.428L255.51 98.2571L247.639 90.3862Z" fill="#E8B678"/>
<path d="M263.142 105.89L248.972 120.06L256.843 127.931L271.013 113.761L263.142 105.89Z" fill="#E8B678"/>
<path d="M278.646 121.393L264.475 135.563L272.346 143.434L286.517 129.264L278.646 121.393Z" fill="#E8B678"/>
<path d="M42.4129 171.572L28.2425 185.743L36.1134 193.614L50.2838 179.443L42.4129 171.572Z" fill="#E8B678"/>
<path d="M57.9166 187.076L43.7462 201.246L51.6171 209.117L65.7875 194.947L57.9166 187.076Z" fill="#E8B678"/>
<path d="M73.4196 202.579L59.2492 216.749L67.1201 224.62L81.2905 210.449L73.4196 202.579Z" fill="#E8B678"/>
<path d="M88.9227 218.082L74.7522 232.252L82.6231 240.123L96.7936 225.953L88.9227 218.082Z" fill="#E8B678"/>
<path d="M104.433 233.592L90.2628 247.763L98.1337 255.634L112.304 241.463L104.433 233.592Z" fill="#E8B678"/>
<path d="M119.936 249.095L105.766 263.266L113.637 271.137L127.807 256.966L119.936 249.095Z" fill="#E8B678"/>
<path d="M135.44 264.599L121.27 278.77L129.14 286.64L143.311 272.47L135.44 264.599Z" fill="#E8B678"/>
</svg>
